<svg width="97" height="97" viewBox="0 0 97 97" fill="none" xmlns="http://www.w3.org/2000/svg">
<rect y="47.749" width="68.3521" height="68.3521" rx="10" transform="rotate(-44.3124 0 47.749)" fill="#5B76FF"/>
<path d="M39.0566 18.2686C34.9982 15.1628 29.9732 13.8206 24.9082 14.4912C19.8412 15.1616 15.3409 17.7627 12.2334 21.8164C11.8043 22.3768 11.5385 23.0127 11.4316 23.6621L11.4287 23.6611C11.1881 25.1237 11.7425 26.6691 13.0029 27.6338C14.8248 29.0273 17.4318 28.6835 18.8281 26.8643C20.5851 24.5713 23.1343 23.0994 26 22.7197C28.8654 22.3402 31.7075 23.1007 34.0029 24.8564C36.2985 26.6125 37.7723 29.1593 38.1533 32.0225C38.5342 34.8855 37.7764 37.726 36.0176 40.0186L31.9961 45.2637C30.6019 47.0834 30.9471 49.6884 32.7686 51.084C33.3074 51.4962 33.9154 51.7552 34.54 51.8701V51.8955H34.6895C35.0911 51.9543 35.4978 51.9536 35.8965 51.8955H52.6855C49.5332 55.5911 47.9244 60.2679 48.1465 65.1426C48.3784 70.2445 50.5829 74.9509 54.3574 78.3965C58.1319 81.8419 63.0219 83.6135 68.126 83.3838C73.2321 83.1545 77.9419 80.9533 81.3887 77.1836C81.8645 76.6625 82.183 76.0517 82.3457 75.4141L82.3477 75.415C82.7141 73.9786 82.2956 72.3906 81.123 71.3203C79.4288 69.7745 76.8025 69.8917 75.2539 71.583C73.3051 73.7153 70.6378 74.9616 67.75 75.0918C64.8625 75.2219 62.0968 74.2174 59.9619 72.2695C57.827 70.3214 56.5789 67.6569 56.4473 64.7715C56.3157 61.8864 57.3162 59.1229 59.2666 56.9912L63.7275 52.1133C65.2741 50.421 65.1558 47.7951 63.4619 46.2471C62.6615 45.5169 61.653 45.1584 60.6484 45.1611V45.1572H42.5479L42.6162 45.0684C45.7235 41.0146 47.0644 35.995 46.3916 30.9346C45.719 25.8721 43.1149 21.3745 39.0566 18.2686Z" fill="white"/>
</svg>
